<svg width="32" height="33" viewBox="0 0 32 33" fill="none" xmlns="http://www.w3.org/2000/svg">
<path d="M31.7071 25.7071C32.0976 25.3166 32.0976 24.6834 31.7071 24.2929L25.3431 17.9289C24.9526 17.5384 24.3195 17.5384 23.9289 17.9289C23.5384 18.3195 23.5384 18.9526 23.9289 19.3431L29.5858 25L23.9289 30.6569C23.5384 31.0474 23.5384 31.6805 23.9289 32.0711C24.3195 32.4616 24.9526 32.4616 25.3431 32.0711L31.7071 25.7071ZM0 0V23.3333H2V0H0ZM3 26H31V24H3V26ZM0 23.3333C0 24.9691 1.52161 26 3 26V24C2.26926 24 2 23.5386 2 23.3333H0Z" fill="#E8ECEE"/>
</svg>
