<svg width="43" height="43" viewBox="0 0 43 43" fill="none" xmlns="http://www.w3.org/2000/svg">
<circle cx="21" cy="21" r="19" fill="#D9D9D9"/>
<path d="M13.2583 27.4003L15.0261 29.168L25.6327 18.5614L27.4005 20.3292L29.1682 18.5614L27.4005 16.7937L29.1682 15.0259L27.4005 13.2581L25.6327 15.0259L23.8649 13.2581L22.0972 15.0259L23.8649 16.7937L13.2583 27.4003ZM18.5616 15.0259L20.3294 13.2581L22.0972 15.0259L20.3294 16.7937L18.5616 15.0259ZM18.5616 15.0259L16.7939 16.7937L15.0261 15.0259L16.7939 13.2581L18.5616 15.0259ZM27.4005 23.8647L29.1682 22.097L27.4005 20.3292L25.6327 22.097L27.4005 23.8647ZM27.4005 23.8647L25.6327 25.6325L27.4005 27.4003L29.1682 25.6325L27.4005 23.8647Z" fill="#D9683C"/>
</svg>
