<svg width="48" height="49" viewBox="0 0 48 49" fill="none" xmlns="http://www.w3.org/2000/svg">
<path d="M38.7862 2.3183V11.5658L34.4628 15.8893L31.2568 12.683L30.6373 13.3027L17.3698 26.5698L28.0117 37.2114L23.064 42.1589L23.0642 46.8754H24.8161V42.8847L29.2505 38.4503L31.2568 40.4566L45.1432 26.5699L39.5027 20.9295L45.8259 14.6061V2.3183H44.074V13.8805L38.2638 19.6906L35.7014 17.1282L40.538 12.2916V2.3183H38.7862ZM1.81494 3.34092V5.09283H19.3093L23.4582 9.24164C23.2101 9.66693 23.0796 10.1506 23.0802 10.6429C23.0802 12.1825 24.3282 13.4307 25.8675 13.4307C27.4069 13.4307 28.6549 12.1825 28.6549 10.643C28.6549 9.10355 27.4069 7.85583 25.8675 7.85583C25.4791 7.85583 25.1093 7.93552 24.7733 8.07914L20.0352 3.34102L1.81494 3.34092ZM1.81494 8.54199V10.2942L14.108 10.2945L18.2568 14.4433C18.0086 14.8685 17.8781 15.3522 17.8785 15.8445C17.8785 17.3839 19.1265 18.6319 20.6659 18.6319C22.2053 18.6319 23.4534 17.3839 23.4534 15.8445C23.4534 14.3052 22.2054 13.0571 20.666 13.0571C20.2775 13.0571 19.9078 13.1368 19.5718 13.2804L14.8336 8.54227H1.81513L1.81494 8.54199ZM9.63238 13.7434L1.81504 13.7436V15.4958L8.90685 15.4955L13.0557 19.6449C12.8076 20.0701 12.6771 20.5537 12.6776 21.0461C12.6776 22.5855 13.9256 23.8335 15.4649 23.8335C17.0043 23.8335 18.2521 22.5855 18.2521 21.046C18.2521 19.5065 17.0043 18.2584 15.4649 18.2584C15.0763 18.2584 14.7065 18.3381 14.3704 18.4818L9.63238 13.7434ZM31.2568 15.1609L42.6656 26.57L31.2568 37.9785L19.8478 26.57L31.2568 15.1611V15.1609ZM31.1392 17.7285L22.2729 26.5949L31.1803 35.5025L32.4192 34.2637L24.7507 26.595L32.3782 18.9673L31.1392 17.7285ZM1.81513 19.7496V24.5503L16.8273 39.5625V46.8754H18.5795V36.5137L1.81513 19.7496ZM34.3004 20.5368L33.0618 21.7756L37.8881 26.6021L33.0346 31.4555L34.2738 32.6943L40.3659 26.6021L34.3007 20.5367L34.3004 20.5368ZM31.4945 23.6456C29.8586 23.6456 28.5328 24.9719 28.5328 26.6075C28.5328 28.243 29.8587 29.5691 31.4943 29.5691C33.1303 29.5691 34.4562 28.243 34.4562 26.6075C34.4562 24.9716 33.1303 23.6455 31.4944 23.6455L31.4945 23.6456ZM1.81494 28.1891V32.9897L10.7105 41.8847V46.8753H12.4625V38.8363L1.81513 28.1891H1.81494ZM41.8816 35.0473C40.3423 35.0473 39.0942 36.2953 39.0942 37.8346C39.0942 39.374 40.3423 40.6223 41.8816 40.6223C42.2561 40.6223 42.6131 40.5479 42.9391 40.414L46.3723 43.8466V41.3691L44.2721 39.2691C44.5326 38.8361 44.67 38.3401 44.6693 37.8347C44.6693 36.2954 43.4211 35.0474 41.8816 35.0474V35.0473ZM1.81494 36.7053V41.5063L4.74875 44.4397L4.74857 46.8755H6.50057L6.50113 41.3915L1.81494 36.7053ZM36.6807 40.2487C35.1414 40.2487 33.8933 41.4967 33.8933 43.0362C33.8933 44.5756 35.1411 45.8234 36.6807 45.8234C37.01 45.8234 37.3258 45.766 37.6191 45.6612L38.8336 46.8752H41.3114L39.0071 44.571C39.3083 44.1159 39.4687 43.5819 39.468 43.0361C39.468 41.4965 38.22 40.2485 36.6807 40.2485L36.6807 40.2487Z" fill="#F2EFE6"/>
</svg>
