<svg width="50" height="51" viewBox="0 0 50 51" fill="none" xmlns="http://www.w3.org/2000/svg">
<path d="M25.0001 35.9167C25.5526 35.9167 26.0825 35.6972 26.4732 35.3065C26.8639 34.9158 27.0834 34.3859 27.0834 33.8333C27.0834 33.2808 26.8639 32.7509 26.4732 32.3602C26.0825 31.9695 25.5526 31.75 25.0001 31.75C24.4475 31.75 23.9176 31.9695 23.5269 32.3602C23.1362 32.7509 22.9167 33.2808 22.9167 33.8333C22.9167 34.3859 23.1362 34.9158 23.5269 35.3065C23.9176 35.6972 24.4475 35.9167 25.0001 35.9167Z" fill="#F2EFE6" stroke="#F2EFE6" stroke-width="1.5" stroke-linecap="round" stroke-linejoin="round"/>
<path d="M43.75 15.8187V35.1812C43.7501 35.4044 43.6905 35.6235 43.5773 35.8159C43.4641 36.0082 43.3014 36.1667 43.1062 36.275L25.6063 45.9958C25.4207 46.0987 25.2121 46.1527 25 46.1527C24.7879 46.1527 24.5792 46.0987 24.3937 45.9958L6.89375 36.275C6.69858 36.1667 6.53594 36.0082 6.42274 35.8159C6.30954 35.6235 6.24989 35.4044 6.25 35.1812V15.8187C6.25026 15.5959 6.31008 15.3772 6.42327 15.1853C6.53645 14.9933 6.69889 14.8351 6.89375 14.7271L24.3937 5.00415C24.5792 4.90127 24.7879 4.84729 25 4.84729C25.2121 4.84729 25.4207 4.90127 25.6063 5.00415L43.1062 14.7271C43.3011 14.8351 43.4635 14.9933 43.5767 15.1853C43.6899 15.3772 43.7497 15.5959 43.75 15.8187Z" stroke="#F2EFE6" stroke-width="1.5" stroke-linecap="round" stroke-linejoin="round"/>
<path d="M42.7084 35.3375L25.6063 25.8375C25.4208 25.7346 25.2122 25.6806 25.0001 25.6806C24.788 25.6806 24.5793 25.7346 24.3938 25.8375L7.29175 35.3375M7.35008 15.6958L24.3917 25.1625C24.5775 25.2658 24.7865 25.3199 24.999 25.3199C25.2116 25.3199 25.4206 25.2658 25.6063 25.1625L42.7084 15.6625M25.0001 6.75V25.5M25.0001 41.125V46.3333" stroke="#F2EFE6" stroke-width="1.5" stroke-linecap="round" stroke-linejoin="round"/>
</svg>
