<svg width="52" height="52" viewBox="0 0 52 52" fill="none" xmlns="http://www.w3.org/2000/svg">
<path d="M2.32679 0H17.2381C17.393 0 17.533 0.0921374 17.5944 0.234386L25.8359 19.4013L34.0776 0.234386C34.1389 0.0921374 34.279 0 34.4339 0H49.3452C49.6909 0 49.8608 0.421704 49.6171 0.666885C46.8593 3.44142 44.3741 6.04399 42.121 8.40345C34.6139 16.2651 29.6841 21.5109 25.8359 21.3414C21.9877 21.5109 17.0581 16.2651 9.55095 8.40345C7.29789 6.044 4.81268 3.44142 2.05487 0.666885C1.81116 0.421704 1.98109 0 2.32679 0Z" fill="#015A6A"/>
<path d="M2.32679 52H17.2381C17.393 52 17.533 51.9079 17.5944 51.7656L25.8359 32.5987L34.0776 51.7656C34.1389 51.9079 34.279 52 34.4339 52H49.3452C49.6909 52 49.8608 51.5783 49.6171 51.3331C46.8593 48.5586 44.3741 45.956 42.121 43.5965C34.6139 35.7349 29.6841 30.4891 25.8359 30.6586C21.9877 30.4891 17.0581 35.7349 9.55095 43.5965C7.29789 45.956 4.81268 48.5586 2.05487 51.3331C1.81116 51.5783 1.98109 52 2.32679 52Z" fill="#015A6A"/>
<path d="M52 2.68447V17.5955C52 17.7504 51.9079 17.8905 51.7656 17.9518L32.5984 26.1933L51.7656 34.4348C51.9079 34.4961 52 34.6362 52 34.7911V49.7022C52 50.0479 51.5783 50.2178 51.3331 49.9741C48.5585 47.2163 45.9559 44.7311 43.5964 42.4781C35.7346 34.9711 30.4888 30.0414 30.6583 26.1933C30.4888 22.3451 35.7346 17.4156 43.5964 9.90852C45.9559 7.6555 48.5585 5.17032 51.3331 2.41254C51.5783 2.16884 52 2.33877 52 2.68447Z" fill="#015A6A"/>
<path d="M2.05524e-06 2.68447L1.40345e-06 17.5955C1.39667e-06 17.7504 0.0921402 17.8905 0.234391 17.9518L19.4016 26.1933L0.23439 34.4348C0.0921395 34.4961 6.58563e-07 34.6362 6.51791e-07 34.7911L0 49.7022C-1.5111e-08 50.0479 0.42171 50.2178 0.666895 49.9741C3.44147 47.2163 6.04408 44.7311 8.40357 42.4781C16.2654 34.9711 21.5112 30.0414 21.3417 26.1933C21.5112 22.3451 16.2654 17.4156 8.40358 9.90852C6.04409 7.6555 3.44147 5.17032 0.666897 2.41254C0.421712 2.16884 2.07035e-06 2.33877 2.05524e-06 2.68447Z" fill="#015A6A"/>
<path d="M29.1024 25.9674C29.1024 27.6818 27.7125 29.0716 25.9981 29.0716C24.2837 29.0716 22.8939 27.6818 22.8939 25.9674C22.8939 24.253 24.2837 22.8632 25.9981 22.8632C27.7125 22.8632 29.1024 24.253 29.1024 25.9674Z" fill="#015A6A"/>
</svg>
