<svg width="51" height="30" viewBox="0 0 51 30" fill="none" xmlns="http://www.w3.org/2000/svg">
<path d="M10.9006 0.52H17.5406V21.76C17.5406 25.68 16.2606 29.56 9.14063 29.56C6.54063 29.56 0.820625 28.72 0.820625 22.6V18H7.46063V22.12C7.46063 23.36 7.42063 25 9.18063 25C10.9406 25 10.9006 23.36 10.9006 22.12V0.52ZM27.9353 29H21.6153V6.12H27.9353V29ZM27.9353 4.56H21.6153V0.52H27.9353V4.56ZM31.4994 29V0.52H40.6994L44.9394 21.24H45.0194V0.52H50.2194V29H41.6994L36.7794 5.2H36.6994V29H31.4994Z" fill="#015A6A"/>
</svg>
