<svg width="97" height="49" viewBox="0 0 97 49" fill="none" xmlns="http://www.w3.org/2000/svg">
<path d="M1.61086 6.49951H11.934C12.0413 6.49951 12.1383 6.5633 12.1807 6.66178L17.8864 19.9314L23.5922 6.66178C23.6346 6.5633 23.7316 6.49951 23.8389 6.49951H34.162C34.4014 6.49951 34.519 6.79146 34.3503 6.96121C32.441 8.88207 30.7205 10.6839 29.1607 12.3174C23.9634 17.7602 20.5505 21.3919 17.8864 21.2746C15.2223 21.3919 11.8095 17.7602 6.6122 12.3174C5.05239 10.6839 3.33186 8.88207 1.4226 6.96121C1.25388 6.79146 1.37153 6.49951 1.61086 6.49951Z" fill="#E8ECEE"/>
<path d="M1.61086 42.5H11.934C12.0413 42.5 12.1383 42.4362 12.1807 42.3378L17.8864 29.0682L23.5922 42.3378C23.6346 42.4362 23.7316 42.5 23.8389 42.5H34.162C34.4014 42.5 34.519 42.2081 34.3503 42.0383C32.441 40.1175 30.7205 38.3157 29.1607 36.6822C23.9634 31.2394 20.5505 27.6076 17.8864 27.725C15.2223 27.6076 11.8095 31.2394 6.6122 36.6822C5.05239 38.3157 3.33186 40.1175 1.4226 42.0383C1.25388 42.2081 1.37153 42.5 1.61086 42.5Z" fill="#E8ECEE"/>
<path d="M36 8.35802V18.6812C36 18.7884 35.9362 18.8854 35.8377 18.9279L22.5681 24.6336L35.8377 30.3393C35.9362 30.3818 36 30.4788 36 30.586V40.9092C36 41.1485 35.708 41.2662 35.5383 41.0975C33.6175 39.1882 31.8156 37.4677 30.1821 35.9079C24.7394 30.7106 21.1076 27.2977 21.225 24.6336C21.1076 21.9694 24.7394 18.5566 30.1821 13.3594C31.8156 11.7995 33.6174 10.079 35.5383 8.16976C35.708 8.00104 36 8.11869 36 8.35802Z" fill="#E8ECEE"/>
<path d="M1.42286e-06 8.35802L9.71616e-07 18.6812C9.66928e-07 18.7884 0.0637894 18.8854 0.162271 18.9279L13.4319 24.6336L0.16227 30.3393C0.0637889 30.3818 4.55928e-07 30.4788 4.5124e-07 30.586L0 40.9092C-1.04615e-08 41.1485 0.291953 41.2662 0.461697 41.0975C2.38255 39.1882 4.18436 37.4677 5.81786 35.9079C11.2606 30.7106 14.8924 27.2977 14.775 24.6336C14.8924 21.9694 11.2607 18.5566 5.81786 13.3594C4.18437 11.7995 2.38256 10.079 0.461698 8.16976C0.291954 8.00104 1.43332e-06 8.11869 1.42286e-06 8.35802Z" fill="#E8ECEE"/>
<path d="M20.1478 24.4772C20.1478 25.6641 19.1856 26.6263 17.9987 26.6263C16.8118 26.6263 15.8496 25.6641 15.8496 24.4772C15.8496 23.2903 16.8118 22.3281 17.9987 22.3281C19.1856 22.3281 20.1478 23.2903 20.1478 24.4772Z" fill="#E8ECEE"/>
<path d="M56.9006 10.52H63.5406V31.76C63.5406 35.68 62.2606 39.56 55.1406 39.56C52.5406 39.56 46.8206 38.72 46.8206 32.6V28H53.4606V32.12C53.4606 33.36 53.4206 35 55.1806 35C56.9406 35 56.9006 33.36 56.9006 32.12V10.52ZM73.9353 39H67.6153V16.12H73.9353V39ZM73.9353 14.56H67.6153V10.52H73.9353V14.56ZM77.4994 39V10.52H86.6994L90.9394 31.24H91.0194V10.52H96.2194V39H87.6994L82.7794 15.2H82.6994V39H77.4994Z" fill="#E8ECEE"/>
</svg>
