<svg width="159" height="65" viewBox="0 0 159 65" fill="none" xmlns="http://www.w3.org/2000/svg">
<path d="M2.59527 3.5H19.2271C19.3998 3.5 19.5561 3.60277 19.6245 3.76143L28.817 25.1399L38.0096 3.76143C38.078 3.60277 38.2343 3.5 38.4071 3.5H55.0389C55.4244 3.5 55.614 3.97036 55.3422 4.24383C52.2661 7.3385 49.4942 10.2414 46.9811 12.8731C38.6078 21.6419 33.1092 27.4929 28.817 27.3039C24.5248 27.4929 19.0264 21.6419 10.653 12.8731C8.13996 10.2414 5.36799 7.3385 2.29197 4.24383C2.02014 3.97036 2.20968 3.5 2.59527 3.5Z" fill="#015A6A"/>
<path d="M2.59527 61.5H19.2271C19.3998 61.5 19.5561 61.3972 19.6245 61.2386L28.817 39.8601L38.0096 61.2386C38.078 61.3972 38.2343 61.5 38.4071 61.5H55.0389C55.4244 61.5 55.614 61.0296 55.3422 60.7562C52.2661 57.6615 49.4942 54.7586 46.9811 52.1269C38.6078 43.3581 33.1092 37.5071 28.817 37.6961C24.5248 37.5071 19.0264 43.3581 10.653 52.1269C8.13996 54.7586 5.36799 57.6615 2.29197 60.7562C2.02014 61.0296 2.20968 61.5 2.59527 61.5Z" fill="#015A6A"/>
<path d="M58 6.49421V23.1258C58 23.2985 57.8972 23.4548 57.7386 23.5232L36.3598 32.7156L57.7386 41.908C57.8972 41.9765 58 42.1327 58 42.3055V58.937C58 59.3226 57.5296 59.5121 57.2562 59.2403C54.1615 56.1644 51.2585 53.3924 48.6268 50.8794C39.8578 42.5062 34.0067 37.0077 34.1958 32.7156C34.0067 28.4234 39.8578 22.9251 48.6268 14.5518C51.2585 12.0388 54.1614 9.26689 57.2562 6.19092C57.5296 5.91909 58 6.10863 58 6.49421Z" fill="#015A6A"/>
<path d="M2.29238e-06 6.49421L1.56538e-06 23.1258C1.55783e-06 23.2985 0.102772 23.4548 0.261436 23.5232L21.6402 32.7156L0.261435 41.908C0.102771 41.9765 7.34551e-07 42.1327 7.26998e-07 42.3055L0 58.937C-1.68546e-08 59.3226 0.470369 59.5121 0.743845 59.2403C3.83856 56.1644 6.74148 53.3924 9.37322 50.8794C18.1422 42.5062 23.9933 37.0077 23.8042 32.7156C23.9933 28.4234 18.1422 22.9251 9.37322 14.5518C6.74148 12.0388 3.83856 9.26689 0.743847 6.19092C0.470371 5.91909 2.30924e-06 6.10863 2.29238e-06 6.49421Z" fill="#015A6A"/>
<path d="M32.4603 32.4636C32.4603 34.3759 30.9101 35.926 28.9979 35.926C27.0856 35.926 25.5355 34.3759 25.5355 32.4636C25.5355 30.5514 27.0856 29.0013 28.9979 29.0013C30.9101 29.0013 32.4603 30.5514 32.4603 32.4636Z" fill="#015A6A"/>
<path d="M81.9653 5.54H95.2453V48.02C95.2453 55.86 92.6853 63.62 78.4453 63.62C73.2453 63.62 61.8053 61.94 61.8053 49.7V40.5H75.0853V48.74C75.0853 51.22 75.0053 54.5 78.5253 54.5C82.0453 54.5 81.9653 51.22 81.9653 48.74V5.54Z" fill="#015A6A"/>
<path d="M114.816 62.5H102.176V16.74H114.816V62.5ZM114.816 13.62H102.176V5.54H114.816V13.62Z" fill="#015A6A"/>
<path d="M120.28 62V5.04H138.68L147.16 46.48H147.32V5.04H157.72V62H140.68L130.84 14.4H130.68V62H120.28Z" fill="#015A6A"/>
</svg>
