<svg width="38" height="38" viewBox="0 0 38 38" fill="none" xmlns="http://www.w3.org/2000/svg">
<path d="M6.96422 31.0358C8.94349 33.015 11.3803 34.4755 14.0589 35.2881C16.7374 36.1006 19.575 36.2399 22.3203 35.6938C25.0656 35.1478 27.6338 33.9331 29.7975 32.1574C31.9612 30.3816 33.6536 28.0997 34.7248 25.5137C35.7959 22.9277 36.2128 20.1175 35.9385 17.3319C35.6641 14.5463 34.7071 11.8713 33.152 9.54397C31.597 7.21661 29.4919 5.30868 27.0234 3.98917C24.5549 2.66966 21.799 1.9793 18.9999 1.97925M14.2024 2.66483C11.704 3.4 9.40746 4.69838 7.48942 6.46013C5.57138 8.22188 4.08294 10.4001 3.13858 12.8271C2.19421 15.2542 1.81907 17.8656 2.04201 20.4604C2.26494 23.0552 3.08002 25.5643 4.42455 27.7947" stroke="#E8ECEE" stroke-linecap="round" stroke-linejoin="round"/>
<path d="M30.8632 18.9999C30.8634 16.2553 29.9119 13.5956 28.1709 11.4739C26.4299 9.35217 24.0071 7.89976 21.3153 7.36412C18.6235 6.82848 15.8293 7.24276 13.4087 8.53636C10.988 9.82996 9.09086 11.9229 8.04036 14.4584C6.98985 16.994 6.85101 19.8154 7.6475 22.4419C8.44399 25.0683 10.1265 27.3374 12.4084 28.8624C14.6903 30.3874 17.4304 31.074 20.1618 30.8052C22.8932 30.5365 25.4469 29.3289 27.3878 27.3884" stroke="#E8ECEE" stroke-linecap="round" stroke-linejoin="round"/>
<path d="M12.2947 19.0001C12.2947 20.3263 12.6879 21.6227 13.4247 22.7254C14.1615 23.8281 15.2088 24.6876 16.434 25.1951C17.6593 25.7026 19.0075 25.8354 20.3083 25.5767C21.609 25.3179 22.8038 24.6793 23.7415 23.7415C24.6793 22.8038 25.3179 21.609 25.5767 20.3083C25.8354 19.0075 25.7026 17.6593 25.1951 16.434C24.6876 15.2088 23.8281 14.1615 22.7254 13.4247C21.6227 12.6879 20.3263 12.2947 19.0001 12.2947" stroke="#E8ECEE" stroke-linecap="round" stroke-linejoin="round"/>
</svg>
