<svg width="100" height="100" viewBox="0 0 100 100" fill="none" xmlns="http://www.w3.org/2000/svg">
<path d="M6.25 37.5V62.5H62.5V68.75H0V31.25H50.4395C50.9277 32.3893 51.5137 33.4798 52.1973 34.5215C52.8809 35.5632 53.6621 36.556 54.541 37.5H6.25ZM93.3105 31.25H100V68.75H81.25V62.5H93.75V37.5H89.209C90.0553 36.556 90.8203 35.5632 91.5039 34.5215C92.1875 33.4798 92.7897 32.3893 93.3105 31.25ZM75 37.207V87.5L71.875 93.75L68.75 87.5V37.207C66.9271 36.8164 65.2507 36.1491 63.7207 35.2051C62.1908 34.2611 60.8724 33.1217 59.7656 31.7871C58.6589 30.4525 57.7962 28.9225 57.1777 27.1973C56.5592 25.472 56.25 23.6979 56.25 21.875C56.25 19.7266 56.6569 17.7083 57.4707 15.8203C58.2845 13.9323 59.3913 12.2721 60.791 10.8398C62.1908 9.40755 63.8509 8.28451 65.7715 7.4707C67.6921 6.6569 69.7266 6.25 71.875 6.25C74.0234 6.25 76.0417 6.6569 77.9297 7.4707C79.8177 8.28451 81.4616 9.40755 82.8613 10.8398C84.2611 12.2721 85.3841 13.9323 86.2305 15.8203C87.0768 17.7083 87.5 19.7266 87.5 21.875C87.5 23.7305 87.1908 25.5046 86.5723 27.1973C85.9538 28.89 85.0911 30.4036 83.9844 31.7383C82.8776 33.0729 81.5592 34.2285 80.0293 35.2051C78.4993 36.1816 76.8229 36.849 75 37.207ZM81.25 21.875C81.25 20.5729 81.0059 19.3522 80.5176 18.2129C80.0293 17.0736 79.362 16.0807 78.5156 15.2344C77.6693 14.388 76.6764 13.7207 75.5371 13.2324C74.3978 12.7441 73.1771 12.5 71.875 12.5C70.5729 12.5 69.3522 12.7441 68.2129 13.2324C67.0736 13.7207 66.0807 14.388 65.2344 15.2344C64.388 16.0807 63.7207 17.0736 63.2324 18.2129C62.7441 19.3522 62.5 20.5729 62.5 21.875C62.5 23.1771 62.7441 24.3978 63.2324 25.5371C63.7207 26.6764 64.388 27.6693 65.2344 28.5156C66.0807 29.362 67.0736 30.0293 68.2129 30.5176C69.3522 31.0059 70.5729 31.25 71.875 31.25C73.1771 31.25 74.3978 31.0059 75.5371 30.5176C76.6764 30.0293 77.6693 29.362 78.5156 28.5156C79.362 27.6693 80.0293 26.6764 80.5176 25.5371C81.0059 24.3978 81.25 23.1771 81.25 21.875Z" fill="#015A6A"/>
</svg>
