<svg width="48" height="49" viewBox="0 0 48 49" fill="none" xmlns="http://www.w3.org/2000/svg">
<path d="M35.8979 32.713L31.8319 16.287M15.9259 31.765L32.0749 36.429M26.7239 14.815L14.6389 26.571" stroke="#F2EFE6" stroke-linecap="round" stroke-linejoin="round"/>
<path d="M37.183 43.26C40.1195 43.26 42.5 40.862 42.5 37.904C42.5 34.946 40.1195 32.548 37.183 32.548C34.2465 32.548 31.866 34.946 31.866 37.904C31.866 40.862 34.2465 43.26 37.183 43.26Z" stroke="#F2EFE6" stroke-linecap="round" stroke-linejoin="round"/>
<path d="M30.547 16.452C33.4835 16.452 35.864 14.054 35.864 11.096C35.864 8.13795 33.4835 5.73999 30.547 5.73999C27.6105 5.73999 25.23 8.13795 25.23 11.096C25.23 14.054 27.6105 16.452 30.547 16.452Z" stroke="#F2EFE6" stroke-linecap="round" stroke-linejoin="round"/>
<path d="M10.817 35.645C13.7535 35.645 16.134 33.2471 16.134 30.289C16.134 27.331 13.7535 24.933 10.817 24.933C7.8805 24.933 5.5 27.331 5.5 30.289C5.5 33.2471 7.8805 35.645 10.817 35.645Z" stroke="#F2EFE6" stroke-linecap="round" stroke-linejoin="round"/>
</svg>
