<svg width="48" height="49" viewBox="0 0 48 49" fill="none" xmlns="http://www.w3.org/2000/svg">
<path d="M24.04 43C34.255 43 42.5 34.715 42.5 24.46C42.5 14.245 34.255 6 24.04 6M24.04 43C13.785 43 5.5 34.715 5.5 24.46C5.5 14.245 13.785 6 24.04 6M24.04 43V6M40.052 15.25H7.96M40.155 33.525H7.857M5.6 24.5H42.4" stroke="#F2EFE6" stroke-linecap="round" stroke-linejoin="round"/>
<path d="M24.02 43C29.128 43 33.25 34.715 33.25 24.46C33.25 14.245 29.128 6 24.02 6C18.892 6 14.75 14.245 14.75 24.46C14.75 34.715 18.892 43 24.02 43Z" stroke="#F2EFE6" stroke-linecap="round" stroke-linejoin="round"/>
</svg>
